<svg width="41" height="40" viewBox="0 0 41 40" fill="none" xmlns="http://www.w3.org/2000/svg">
<path d="M8.38916 21.266C8.38916 19.0031 8.38916 17.8716 8.8466 16.877C9.30403 15.8825 10.1631 15.1461 11.8812 13.6734L13.5479 12.2449C16.6534 9.58299 18.2062 8.25204 20.0558 8.25204C21.9054 8.25204 23.4582 9.58299 26.5637 12.2449L28.2304 13.6734C29.9486 15.1461 30.8076 15.8825 31.2651 16.877C31.7225 17.8716 31.7225 19.0031 31.7225 21.266V28.3333C31.7225 31.476 31.7225 33.0474 30.7462 34.0237C29.7699 35 28.1985 35 25.0558 35H15.0558C11.9131 35 10.3418 35 9.36547 34.0237C8.38916 33.0474 8.38916 31.476 8.38916 28.3333V21.266Z" stroke="white" stroke-width="2.5"/>
<path d="M24.2225 35V26C24.2225 25.4477 23.7748 25 23.2225 25H16.8892C16.3369 25 15.8892 25.4477 15.8892 26V35" stroke="white" stroke-width="2" stroke-linecap="round" stroke-linejoin="round"/>
</svg>
